<svg width="194" height="185" viewBox="0 0 194 185" fill="none" xmlns="http://www.w3.org/2000/svg">
<path d="M31.5226 48.9365C-4.08626 84.9476 5.25376 116.482 12.4534 131.275C15.1127 141.008 16.0337 165.379 0 185C5.57807 184.027 18.5633 179.744 25.8796 170.401C28.0201 167.676 32.6512 160.746 34.0522 154.829C40.0194 157.229 53.8608 164.756 61.4885 175.657C62.0722 171.504 63.0062 162.031 62.0722 157.359C61.1642 153.661 58.414 145.29 54.678 141.397C52.9916 139.191 48.14 134.078 42.2247 131.275C38.2681 129.394 30.0437 124.774 28.7984 121.348C27.0471 119.726 24.4786 114.885 28.2146 108.501C31.328 102.402 44.0148 91.2155 69.0772 97.6001C81.2063 101.299 103.713 107.333 119.085 106.165C134.457 106.879 170.806 99.3131 194 62.5623C192.249 57.9555 184.193 45.1992 165.202 31.8069C156.445 26.4215 133.523 15.6117 113.442 14.6773C107.281 7.86443 87.9129 -4.43773 58.1805 1.63549C61.7479 4.10112 69.1551 11.5629 70.2447 21.6849C51.876 28.8482 36.452 43.0969 31.5226 48.9365Z" fill="#D5A43B"/>
</svg>
